<svg width="24" height="24" viewBox="0 0 24 24" fill="none" xmlns="http://www.w3.org/2000/svg">
<path d="M14.7948 24C14.7144 24 14.6316 23.9955 14.5488 23.985C13.4928 23.8545 12.6648 22.9231 12.4368 21.6107L9.2172 3.02466L5.9016 12.5967C5.7108 13.1456 5.2776 13.5011 4.8 13.5011H1.2C0.5364 13.5011 0 12.8291 0 12.0012C0 11.1718 0.5364 10.5014 1.2 10.5014H4.0128L7.02 1.81878C7.446 0.594907 8.3844 -0.11752 9.4512 0.0159665C10.5072 0.146453 11.3352 1.07786 11.5632 2.39022L14.7828 20.9763L18.0984 11.4043C18.2892 10.8554 18.7212 10.5014 19.2 10.5014H22.8C23.4636 10.5014 24 11.1718 24 12.0012C24 12.8291 23.4636 13.5011 22.8 13.5011H19.9872L16.98 22.1822C16.5876 23.3116 15.7464 24 14.7948 24" fill="black"/>
</svg>
