<svg width="24" height="24" viewBox="0 0 24 24" fill="none" xmlns="http://www.w3.org/2000/svg">
<path fill-rule="evenodd" clip-rule="evenodd" d="M23.6096 0.368464C23.0891 -0.122821 22.2447 -0.122821 21.7242 0.368464L0.391494 20.4462C0.130498 20.6919 0 21.0123 0 21.3342C0 21.6547 0.130498 21.9766 0.391494 22.2208C0.911986 22.7107 1.75497 22.7107 2.27696 22.2208L23.6096 2.14302C24.1301 1.65174 24.1301 0.858338 23.6096 0.368464ZM18 21.1764C16.7595 21.1764 15.75 20.2263 15.75 19.0588C15.75 17.8913 16.7595 16.9412 18 16.9412C19.2404 16.9412 20.2499 17.8913 20.2499 19.0588C20.2499 20.2263 19.2404 21.1764 18 21.1764ZM12.7502 19.0588C12.7502 16.3342 15.1052 14.1177 18.0002 14.1177C20.8951 14.1177 23.2501 16.3342 23.2501 19.0588C23.2501 21.7835 20.8951 23.9999 18.0002 23.9999C15.1052 23.9999 12.7502 21.7835 12.7502 19.0588ZM6.00021 2.82382C7.24069 2.82382 8.25017 3.77393 8.25017 4.94143C8.25017 6.10894 7.24069 7.05904 6.00021 7.05904C4.75973 7.05904 3.75024 6.10894 3.75024 4.94143C3.75024 3.77393 4.75973 2.82382 6.00021 2.82382ZM11.2501 4.94143C11.2501 7.66609 8.89512 9.88252 6.00016 9.88252C3.10521 9.88252 0.750244 7.66609 0.750244 4.94143C0.750244 2.21678 3.10521 0.000344663 6.00016 0.000344663C8.89512 0.000344663 11.2501 2.21678 11.2501 4.94143Z" fill="#0D1C2E"/>
</svg>
