<svg width="24" height="25" viewBox="0 0 24 25" fill="none" xmlns="http://www.w3.org/2000/svg">
<path d="M14.7948 24.5C14.7144 24.5 14.6316 24.4955 14.5488 24.485C13.4928 24.3545 12.6648 23.4231 12.4368 22.1107L9.2172 3.52466L5.9016 13.0967C5.7108 13.6456 5.2776 14.0011 4.8 14.0011H1.2C0.5364 14.0011 0 13.3291 0 12.5012C0 11.6718 0.5364 11.0014 1.2 11.0014H4.0128L7.02 2.31878C7.446 1.09491 8.3844 0.38248 9.4512 0.515966C10.5072 0.646453 11.3352 1.57786 11.5632 2.89022L14.7828 21.4763L18.0984 11.9043C18.2892 11.3554 18.7212 11.0014 19.2 11.0014H22.8C23.4636 11.0014 24 11.6718 24 12.5012C24 13.3291 23.4636 14.0011 22.8 14.0011H19.9872L16.98 22.6822C16.5876 23.8116 15.7464 24.5 14.7948 24.5" fill="#33CC33"/>
</svg>
