<svg width="24" height="25" viewBox="0 0 24 25" fill="none" xmlns="http://www.w3.org/2000/svg">
<path fill-rule="evenodd" clip-rule="evenodd" d="M23.6096 0.868464C23.0891 0.377179 22.2447 0.377179 21.7242 0.868464L0.391494 20.9462C0.130498 21.1919 0 21.5123 0 21.8342C0 22.1547 0.130498 22.4766 0.391494 22.7208C0.911986 23.2107 1.75497 23.2107 2.27696 22.7208L23.6096 2.64302C24.1301 2.15174 24.1301 1.35834 23.6096 0.868464ZM18 21.6764C16.7595 21.6764 15.75 20.7263 15.75 19.5588C15.75 18.3913 16.7595 17.4412 18 17.4412C19.2404 17.4412 20.2499 18.3913 20.2499 19.5588C20.2499 20.7263 19.2404 21.6764 18 21.6764ZM12.7502 19.5588C12.7502 16.8342 15.1052 14.6177 18.0002 14.6177C20.8951 14.6177 23.2501 16.8342 23.2501 19.5588C23.2501 22.2835 20.8951 24.4999 18.0002 24.4999C15.1052 24.4999 12.7502 22.2835 12.7502 19.5588ZM6.00021 3.32382C7.24069 3.32382 8.25017 4.27393 8.25017 5.44143C8.25017 6.60894 7.24069 7.55904 6.00021 7.55904C4.75973 7.55904 3.75024 6.60894 3.75024 5.44143C3.75024 4.27393 4.75973 3.32382 6.00021 3.32382ZM11.2501 5.44143C11.2501 8.16609 8.89512 10.3825 6.00016 10.3825C3.10521 10.3825 0.750244 8.16609 0.750244 5.44143C0.750244 2.71678 3.10521 0.500345 6.00016 0.500345C8.89512 0.500345 11.2501 2.71678 11.2501 5.44143Z" fill="#33CC33"/>
</svg>
